# xmcd
#
# Track frame offsets: 
#        150
#        19574
#        36185
#        56582
#        73368
#        87078
#        108227
#        126604
#        144261
#        160791
#        178355
#        195894
#        216822
#        236319
#        251770
#
# Disc length: 3536 seconds
#
# Revision: 0
# Processed by: cddbd v1.5.2PL0 Copyright (c) Steve Scherf et al.
# Submitted via: ExactAudioCopy v1.0b6
#
DISCID=d00dce0f
DTITLE=Jim Weber - Many Mountains (2002)
DYEAR=2002
DGENRE=Blues
TTITLE0=Upward And Onward
TTITLE1=For A Time Like This
TTITLE2=She Has Wings
TTITLE3=Jesus La La Song
TTITLE4=Here I Am
TTITLE5=Too Much To Ask
TTITLE6=Everything It Touches
TTITLE7=No Excuse
TTITLE8=Powerful
TTITLE9=The Lord Will Fight For You
TTITLE10=I Am Listening
TTITLE11=Not Far Off
TTITLE12=Thank You Jesus
TTITLE13=More Of Jesus
TTITLE14=These Walls
EXTD=
EXTT0=
EXTT1=
EXTT2=
EXTT3=
EXTT4=
EXTT5=
EXTT6=
EXTT7=
EXTT8=
EXTT9=
EXTT10=
EXTT11=
EXTT12=
EXTT13=
EXTT14=
PLAYORDER=
